PathFileType	4	(X/Y/Z)	C:\Users\Basilio\Documents\Thesis Gigler\squatting_fais\c3dfiles\058\SJ_pre3\markers_experimental.trc
DataRate	CameraRate	NumFrames	NumMarkers	Units	OrigDataRate	OrigDataStartFrame	OrigNumFrames
200.000000	200.000000	4	61	mm	200.000000	350	1400
Frame#	Time	FHD			LBHD			RBHD			C7			T10			CLAV			LSHO			LUUPA			LMUPA			LDUPA			LLEP			LMEP			LRAD			LUL			LRFIN			RSHO			RUPA1			RMUPA			RDUPA			RLEP			RMEP			RRAD			RUL			RUFIN			LASI			RASI			USACR			LSACR			RSACR			LTHI1			LTHI2			LTHI3			LTHI4			LLFC			LMFC			LTIB1			LTIB2			LTIB3			LTIB4			LLMAL			LMMAL			LHEE			LMT1			LMT2			LMT5			RTHI			RTHI2			RTHI3			RTHI4			RLFC			RMFC			RTIB1			RTIB2			RTIB3			RTIB4			RLMAL			RMMAL			RHEE			RMT1			RMT2			RMT5			
		X1	Y1	Z1	X2	Y2	Z2	X3	Y3	Z3	X4	Y4	Z4	X5	Y5	Z5	X6	Y6	Z6	X7	Y7	Z7	X8	Y8	Z8	X9	Y9	Z9	X10	Y10	Z10	X11	Y11	Z11	X12	Y12	Z12	X13	Y13	Z13	X14	Y14	Z14	X15	Y15	Z15	X16	Y16	Z16	X17	Y17	Z17	X18	Y18	Z18	X19	Y19	Z19	X20	Y20	Z20	X21	Y21	Z21	X22	Y22	Z22	X23	Y23	Z23	X24	Y24	Z24	X25	Y25	Z25	X26	Y26	Z26	X27	Y27	Z27	X28	Y28	Z28	X29	Y29	Z29	X30	Y30	Z30	X31	Y31	Z31	X32	Y32	Z32	X33	Y33	Z33	X34	Y34	Z34	X35	Y35	Z35	X36	Y36	Z36	X37	Y37	Z37	X38	Y38	Z38	X39	Y39	Z39	X40	Y40	Z40	X41	Y41	Z41	X42	Y42	Z42	X43	Y43	Z43	X44	Y44	Z44	X45	Y45	Z45	X46	Y46	Z46	X47	Y47	Z47	X48	Y48	Z48	X49	Y49	Z49	X50	Y50	Z50	X51	Y51	Z51	X52	Y52	Z52	X53	Y53	Z53	X54	Y54	Z54	X55	Y55	Z55	X56	Y56	Z56	X57	Y57	Z57	X58	Y58	Z58	X59	Y59	Z59	X60	Y60	Z60	X61	Y61	Z61	

351	1.75	-137.1748504638672	1750.607055664063	-818.9622802734377	-299.4641723632813	1712.153686523438	-887.8980102539065	-129.6633605957032	1758.441528320313	-961.316589355469	-335.5640869140626	1572.630981445313	-903.244323730469	-392.795623779297	1261.767944335938	-889.7675781250002	-184.1468963623047	1497.400634765625	-889.9184570312502	-189.2567749023438	1551.846801757813	-1061.47900390625	-332.3924560546876	1453.028930664063	-1224.435546875	-306.5876770019532	1410.050415039063	-1232.039916992188	-359.2074890136719	1399.060302734375	-1261.345092773438	-396.1554260253907	1327.234008789063	-1292.773315429688	-453.8547668457032	1330.619140625	-1243.972900390625	-379.2348327636719	1140.744506835938	-1090.647705078125	-306.2106018066407	1151.255493164063	-1080.947998046875	-353.1315002441407	1085.79833984375	-1145.18603515625	-205.9920196533204	1567.060180664063	-719.9273071289064	-346.0975646972657	1459.215698242188	-560.3083496093751	-319.6807250976563	1416.409790039063	-559.1017456054689	-365.1504516601563	1401.647216796875	-523.1516723632814	-400.0887756347657	1346.230834960938	-493.187713623047	-464.5069580078126	1329.782592773438	-554.4047851562501	-329.8303222656251	1155.880615234375	-669.9146118164064	-308.9790039062501	1107.721435546875	-609.0574951171876	-263.4450683593751	1127.218627929688	-701.4136352539064	-244.1661529541016	1029.79638671875	-1008.196166992188	-235.9834594726563	1034.046630859375	-775.4058837890627	-417.340789794922	1146.028442382813	-875.785095214844	-429.977508544922	1115.161010742188	-902.6075439453127	-426.7868652343751	1115.996215820313	-845.464782714844	-301.8204040527344	768.9562988281252	-1114.103759765625	-268.5765991210938	690.3329467773439	-1121.492065429688	-223.254867553711	690.8604736328126	-1099.293090820313	-295.3504638671876	636.6931762695314	-1113.653198242188	-287.3124084472657	539.7571411132814	-1117.312744140625	-253.5005493164063	517.9884643554689	-997.3663330078127	-239.0681304931641	398.7748107910157	-1103.902221679688	-300.4439392089844	376.2156982421876	-1158.002197265625	-261.5063476562501	361.4672241210938	-1139.637573242188	-270.2821655273438	277.1444702148438	-1124.810791015625	-356.0609436035157	91.00449371337892	-1155.052001953125	-323.3985290527344	97.05662536621097	-1066.36279296875	-415.7330627441407	49.38440704345705	-1102.124145507813	-189.456298828125	63.05246734619142	-1112.05859375	-192.3769531250001	62.80735397338869	-1159.265014648438	-244.8750152587891	37.16495513916016	-1208.445068359375	-342.3510131835938	846.9151611328127	-677.7363281250001	-301.6245117187501	794.8379516601565	-669.4682617187501	-268.9398193359376	795.4490356445315	-674.0350952148439	-325.4149475097657	713.5801391601564	-678.6970214843751	-311.5142211914063	535.8997802734376	-676.1218872070314	-278.6954345703126	506.7303161621095	-804.4639282226565	-270.4392700195313	322.0843200683594	-732.8181152343751	-312.6840515136719	255.8452301025391	-655.9924926757814	-278.3549804687501	243.4964141845704	-687.3515014648439	-289.9365234375001	195.2112731933594	-715.7315063476564	-352.8145446777344	93.90814208984376	-661.1722412109376	-319.1105651855469	104.9884872436524	-749.6655883789064	-413.7982482910157	48.55735778808595	-721.2191772460939	-193.9967346191407	56.95060348510744	-707.1644287109376	-196.1385498046876	62.60433959960939	-655.5148925781251	-245.1306152343751	28.43712806701661	-605.2091064453126	
352	1.755	-138.0755462646485	1750.949951171875	-819.0403442382815	-300.4758300781251	1711.717041015625	-887.512634277344	-131.0726470947266	1758.859130859375	-961.1394653320315	-335.9470520019532	1572.460205078125	-902.6799926757815	-392.8640136718751	1261.423950195313	-889.2534790039065	-184.3209381103516	1497.566772460938	-889.4219360351565	-189.6893310546875	1551.871948242188	-1061.14892578125	-332.7569885253907	1452.805541992188	-1223.834228515625	-306.8397521972657	1409.724975585938	-1231.842895507813	-359.6183776855469	1398.694702148438	-1260.845825195313	-396.4436035156251	1326.9072265625	-1292.147827148438	-453.945281982422	1330.208984375	-1243.177612304688	-379.0887756347657	1140.517333984375	-1090.052490234375	-305.9035949707032	1151.055786132813	-1080.442504882813	-352.7350769042969	1085.508911132813	-1144.5556640625	-206.5580291748047	1567.1923828125	-719.3255004882814	-346.1501159667969	1459.08544921875	-559.7697143554689	-319.5788879394532	1416.388916015625	-558.4789428710939	-365.0086364746094	1401.552490234375	-522.6163940429689	-399.8838806152345	1346.0791015625	-492.6386718750001	-464.3039550781251	1329.5732421875	-553.6762084960939	-329.4324951171876	1156.167724609375	-669.5394897460939	-308.9160766601563	1107.600952148438	-608.5763549804689	-263.1371154785157	1126.9296875	-700.9692382812501	-243.8042449951172	1029.780395507813	-1007.707946777344	-235.8746795654297	1034.02099609375	-774.8809814453127	-417.2932434082032	1145.9052734375	-875.388366699219	-429.9573059082032	1114.793334960938	-902.250183105469	-426.6911010742189	1115.713500976563	-844.9732666015627	-300.8706359863282	768.7790527343752	-1113.903686523438	-267.6763916015626	690.3611450195314	-1120.99755859375	-221.1179962158204	690.6724243164064	-1098.75	-294.1203613281251	636.5935668945314	-1113.750854492188	-286.3724975585938	539.4580078125001	-1117.183227539063	-252.4451751708985	517.8837890625001	-997.2471313476565	-238.4502716064454	398.525115966797	-1103.618286132813	-299.7860107421876	376.1558837890626	-1157.767944335938	-260.7647705078126	361.2524108886719	-1139.411010742188	-270.0193786621094	276.8041992187501	-1124.46337890625	-356.0142517089844	91.08271789550783	-1155.0234375	-323.3443908691407	97.03102111816409	-1066.2177734375	-416.4697875976564	49.93964767456056	-1101.994750976563	-189.6090545654297	62.91917419433595	-1112.184814453125	-191.3343200683594	62.0629005432129	-1159.658569335938	-244.8607635498047	37.23565673828126	-1208.376098632813	-342.5430908203126	846.7437744140627	-677.3251342773439	-302.0119628906251	794.900573730469	-668.9540405273439	-268.8879699707032	795.6953735351565	-673.3729248046876	-325.4223327636719	713.4639282226564	-678.1202392578126	-311.3291931152344	535.8381347656251	-675.5020141601564	-277.8077697753907	506.7705688476564	-803.8133544921877	-270.1610717773438	322.0459289550782	-732.3017578125001	-312.6323547363282	255.8245697021485	-655.6538085937501	-278.3295593261719	243.4985504150391	-687.0336914062501	-289.7879333496094	195.2303619384766	-715.4646606445314	-352.8140258789063	93.86622619628908	-661.0135498046876	-319.0223693847657	105.0108261108399	-749.4116210937501	-413.7650451660157	48.5690383911133	-721.1463012695314	-193.9763336181641	56.97344970703126	-707.0729980468751	-197.1896972656251	62.31328582763673	-655.0349121093751	-245.1749420166016	28.2724895477295	-605.1418457031251	
353	1.76	-139.096420288086	1751.677001953125	-818.799255371094	-301.3890380859376	1711.488403320313	-887.1182250976565	-132.2179107666016	1759.398071289063	-960.9371337890627	-336.4863891601563	1572.114379882813	-902.0906372070315	-392.8270874023439	1261.20849609375	-888.6262207031252	-184.361572265625	1497.639526367188	-889.0089111328127	-190.1520538330078	1552.108642578125	-1060.708740234375	-333.1974182128907	1452.569580078125	-1223.171020507813	-307.2265625000001	1409.438842773438	-1231.219970703125	-359.9533386230469	1398.441650390625	-1260.240356445313	-396.5961914062501	1326.575561523438	-1291.516723632813	-454.1389465332032	1329.614990234375	-1242.57861328125	-378.8713684082032	1140.232543945313	-1089.549072265625	-305.9313659667969	1150.8876953125	-1079.8818359375	-352.4704284667969	1085.199096679688	-1144.040893554688	-206.7758178710938	1567.408569335938	-718.8039550781251	-346.1870117187501	1458.840698242188	-559.2250976562501	-319.6206054687501	1416.294555664063	-557.8435668945314	-364.9397583007813	1401.400390625	-522.1287231445314	-399.6575927734376	1345.824584960938	-491.7636108398439	-464.099334716797	1329.0830078125	-552.9390869140626	-329.3573608398438	1156.0556640625	-669.0358886718751	-308.8469543457032	1107.458251953125	-608.0396118164064	-262.9797058105469	1126.80517578125	-700.5342407226564	-243.5911102294922	1029.713500976563	-1007.093872070313	-235.7439880371094	1034.048950195313	-774.4378662109377	-417.1323242187501	1145.787353515625	-875.073669433594	-429.7790527343751	1114.68017578125	-901.7998657226565	-426.5872192382814	1115.635986328125	-844.5614013671877	-299.7379150390626	768.6459960937502	-1113.5791015625	-266.6265563964844	690.3533325195314	-1120.879028320313	-220.2257385253907	690.6171875000001	-1098.192504882813	-293.0784301757813	636.5304565429689	-1113.786987304688	-285.4494323730469	539.2136230468751	-1116.983276367188	-251.5722351074219	517.7286987304689	-997.1540527343752	-237.9862365722657	398.4122924804689	-1103.302490234375	-298.9069213867188	376.0874328613282	-1157.739990234375	-260.0233764648438	360.9548645019532	-1139.307006835938	-269.2747497558594	276.6848449707032	-1124.248046875	-355.9587402343751	91.10456848144533	-1154.916625976563	-323.2381591796876	97.03698730468753	-1066.115234375	-415.7132263183595	49.41964721679689	-1102.036743164063	-189.5297088623047	62.85581588745119	-1112.052856445313	-192.1975402832032	62.75819015502931	-1159.205932617188	-244.8740997314454	37.37557220458985	-1208.301879882813	-342.6700439453126	846.620544433594	-676.8731689453126	-302.2086486816407	794.7694091796877	-668.4342041015626	-269.0802307128907	795.5930786132815	-672.7963256835939	-325.4853820800782	713.4397583007814	-677.6706542968751	-311.2063903808594	535.7706298828126	-675.0696411132814	-276.2984313964844	507.5596008300782	-802.6994628906252	-270.0379943847657	322.0604858398438	-731.8190307617189	-312.5890502929688	255.8180694580079	-655.4087524414064	-278.2264709472657	243.4314270019532	-686.6617431640626	-289.6774902343751	195.1897277832032	-715.1609497070314	-352.8096008300782	93.87027740478517	-660.3283081054689	-318.9793701171876	105.0754013061524	-749.1615600585939	-413.7467041015626	48.56444549560548	-721.0965576171876	-193.9116210937501	57.02754974365236	-706.9337768554689	-196.9815216064454	62.33369064331056	-655.3754882812501	-245.1426239013672	28.24117088317872	-605.0681152343751	
354	1.765	-140.6524810791016	1752.554931640625	-818.1997680664065	-302.0790100097657	1711.091430664063	-886.7813720703127	-133.4103088378907	1759.910522460938	-960.5970458984377	-336.7826232910157	1571.989013671875	-901.7207031250002	-392.7821655273439	1261.000244140625	-888.1459960937502	-184.5384826660157	1497.717163085938	-888.514831542969	-190.375473022461	1552.056884765625	-1060.3095703125	-333.6033630371094	1452.43798828125	-1222.558349609375	-307.6436767578126	1409.375	-1230.65625	-360.5173034667969	1398.20068359375	-1259.572143554688	-396.7481079101564	1326.314697265625	-1290.971313476563	-454.2256469726564	1329.150634765625	-1241.993530273438	-378.7803344726563	1139.746337890625	-1089.047729492188	-305.8070983886719	1150.625	-1079.49267578125	-352.3376770019532	1084.689331054688	-1143.492431640625	-207.0932922363282	1567.560424804688	-718.3400878906251	-346.2103271484376	1458.821899414063	-558.5325317382814	-319.4597167968751	1416.356811523438	-557.1997070312501	-364.8862915039063	1401.151611328125	-521.5153198242189	-399.3687438964845	1345.535034179688	-491.503631591797	-463.8601684570314	1328.798461914063	-552.2202148437501	-329.2693481445313	1155.596801757813	-668.4511108398439	-308.8348083496094	1107.33349609375	-607.5767211914064	-262.8645935058594	1126.727294921875	-700.0665893554689	-243.4487915039063	1029.698486328125	-1006.523010253906	-235.6338500976563	1034.085693359375	-773.9580078125002	-417.1155090332032	1145.646606445313	-874.644470214844	-429.6185913085939	1114.54833984375	-901.402282714844	-426.4535217285157	1115.53955078125	-844.266540527344	-298.8371582031251	768.592224121094	-1113.3525390625	-265.6780090332032	690.1473999023439	-1120.64794921875	-219.6180419921876	690.6392822265626	-1097.811767578125	-292.0889282226563	636.4030761718751	-1113.700073242188	-284.5300598144532	539.0176391601564	-1116.810913085938	-251.0439758300782	517.5047607421876	-996.925720214844	-237.2933807373047	398.5471801757814	-1103.118041992188	-298.3093872070313	376.0059814453126	-1157.562866210938	-259.4535827636719	360.8067626953126	-1139.158081054688	-268.7274475097657	276.8786926269532	-1124.061279296875	-355.8907470703126	91.14941406250001	-1154.844360351563	-323.1569213867188	97.04282379150393	-1065.956665039063	-415.6625366210939	49.46810913085939	-1101.956420898438	-189.5767059326172	62.79859161376955	-1112.007202148438	-191.8894805908203	62.48525619506837	-1159.236938476563	-244.8545074462891	37.39436340332032	-1208.257690429688	-343.0163574218751	846.6316528320315	-676.4415283203126	-302.3245544433594	794.588562011719	-667.9776611328126	-269.3050231933594	795.5758056640627	-672.1236572265626	-325.6071472167969	713.4716796875001	-677.2969970703126	-311.1932373046876	535.7020874023439	-674.5913696289064	-275.6029052734376	507.6203613281251	-802.1946411132815	-269.9166564941407	322.0813293457032	-731.4308471679689	-312.5169677734376	255.832748413086	-655.0776367187501	-278.2422180175782	243.5377655029297	-686.4086914062501	-289.5830688476563	195.2011260986329	-714.8323364257814	-352.9090576171876	93.81947326660158	-660.1915893554689	-318.9751586914063	105.0811614990235	-749.0204467773439	-413.7737121582032	48.58813095092775	-721.0638427734376	-193.9122314453126	57.06541824340822	-706.8667602539064	-196.9709625244141	62.21162796020509	-655.2788085937501	-245.1050872802735	28.18241882324219	-605.0249023437501	
